<svg xmlns="http://www.w3.org/2000/svg" width="22" height="22" version="1.1">
 <style id="current-color-scheme">.ColorScheme-Text { color:#232629; }</style>
 <path style="fill:currentColor" class="ColorScheme-Text" d="M 4,5 h 14 v 1 h -14 Z M 3,6 h 1 v 1 h -1 Z M 18,6 h 1 v 1 h -1 Z M 3,7 h 1 v 1 h -1 Z M 18,7 h 1 v 1 h -1 Z M 3,8 h 1 v 1 h -1 Z M 18,8 h 1 v 1 h -1 Z M 3,9 h 1 v 1 h -1 Z M 18,9 h 1 v 1 h -1 Z M 3,10 h 1 v 1 h -1 Z M 18,10 h 1 v 1 h -1 Z M 3,11 h 1 v 1 h -1 Z M 13,11 h 1 v 1 h -1 Z M 18,11 h 1 v 1 h -1 Z M 3,12 h 1 v 1 h -1 Z M 12,12 h 2 v 1 h -2 Z M 18,12 h 1 v 1 h -1 Z M 3,13 h 1 v 1 h -1 Z M 11,13 h 3 v 1 h -3 Z M 18,13 h 1 v 1 h -1 Z M 4,14 h 3 v 1 h -3 Z M 10,14 h 8 v 1 h -8 Z M 11,15 h 3 v 1 h -3 Z M 12,16 h 2 v 1 h -2 Z M 13,17 h 1 v 1 h -1 Z"/>
</svg>
